<svg viewBox="0 0 107 97" fill="none" xmlns="http://www.w3.org/2000/svg"><path d="M0 0h107v97H0z"/><path d="M0 0h107v97H0z"/><path d="M0 0h107v97H0z"/><path d="M.148 87.962H107V97H.148z"/><path d="M6.305 88.674L3.43 94.012c-.228.425-.496.743-.805.953a1.75 1.75 0 0 1-1.007.314c-.284 0-.573-.064-.87-.194l.241-.74c.228.08.432.12.61.12.407 0 .743-.216 1.008-.647l.148-.232-2.607-4.912h.99l2.097 4.108 2.154-4.108h.916zm2.525 4.404H7.814v2.072h-.888v-4.903h.888v2.072h1.035l1.59-2.072h.952l-1.858 2.359 1.988 2.544h-1.045L8.83 93.078zm6.22-2.878c.474 0 .9.104 1.275.314.376.21.669.503.878.879.216.376.324.81.324 1.304s-.108.932-.323 1.314a2.23 2.23 0 0 1-.879.879c-.376.21-.8.314-1.275.314a2.3 2.3 0 0 1-.971-.203 2.02 2.02 0 0 1-.74-.592v2.535h-.887v-6.698h.85v.777c.198-.272.447-.475.75-.61a2.31 2.31 0 0 1 .998-.213zm-.074 4.227c.314 0 .594-.07.84-.212a1.56 1.56 0 0 0 .592-.611 1.83 1.83 0 0 0 .222-.907c0-.339-.074-.638-.222-.897a1.487 1.487 0 0 0-.591-.61 1.656 1.656 0 0 0-.841-.213c-.309 0-.589.074-.842.222a1.584 1.584 0 0 0-.591.601 1.84 1.84 0 0 0-.213.897c0 .34.071.642.213.907.142.259.339.462.591.61.253.142.534.213.842.213zm6.336-4.015c.456 0 .863.102 1.22.306.358.203.635.487.832.85.204.358.306.769.306 1.231 0 .475-.108.897-.324 1.267-.21.364-.508.648-.897.852a2.75 2.75 0 0 1-1.312.305c-.832 0-1.476-.284-1.932-.851-.45-.574-.675-1.379-.675-2.415 0-1.005.206-1.791.62-2.359.412-.573 1.044-.953 1.894-1.138l2.237-.5.13.815-2.062.444c-.64.142-1.118.382-1.433.722-.314.339-.493.826-.536 1.461.21-.314.481-.558.814-.73a2.392 2.392 0 0 1 1.118-.26zm-.157 4.07c.314 0 .592-.07.832-.212a1.48 1.48 0 0 0 .573-.583c.136-.253.204-.54.204-.86 0-.487-.148-.879-.444-1.175-.296-.296-.684-.444-1.165-.444-.48 0-.872.148-1.174.444-.296.296-.444.688-.444 1.175 0 .32.068.607.204.86.142.247.336.441.582.583.247.142.524.213.832.213zm8.019-4.236l-2.376 5.393c-.21.5-.456.851-.74 1.055-.277.203-.612.305-1.007.305-.24 0-.474-.04-.702-.12a1.394 1.394 0 0 1-.555-.333l.379-.666c.253.24.545.36.878.36a.814.814 0 0 0 .536-.175c.148-.111.28-.306.398-.583l.157-.342-2.163-4.894h.924l1.71 3.922 1.692-3.922h.869zm5.63 4.126v1.915h-.832V95.15h-4.096v1.138h-.84v-1.915h.258c.314-.019.53-.24.647-.666.117-.426.197-1.027.24-1.804l.074-1.656h3.8v4.126h.748zm-3.81-2.406a10.29 10.29 0 0 1-.156 1.536c-.074.401-.213.69-.416.87h2.745v-3.35H31.04l-.046.945zm4.633.26h2.486v.767h-2.486v-.767zm6.819 2.997a3.271 3.271 0 0 1-1.664-.426 3.157 3.157 0 0 1-1.165-1.184 3.421 3.421 0 0 1-.425-1.702c0-.63.142-1.193.425-1.693a3.07 3.07 0 0 1 1.165-1.184 3.221 3.221 0 0 1 1.664-.435c.53 0 1.01.087 1.442.26.431.172.792.425 1.081.758l-.582.583c-.487-.512-1.119-.768-1.895-.768-.413 0-.789.092-1.128.277a2.232 2.232 0 0 0-.832.759 2.45 2.45 0 0 0-.388 1.12h3.134v.758h-3.125c.062.4.2.755.416 1.064.216.308.49.549.823.721.333.173.7.26 1.1.26.77 0 1.402-.257 1.895-.769l.582.583a2.77 2.77 0 0 1-1.09.759c-.432.172-.91.259-1.433.259zm6.998-2.618c.634.16.952.558.952 1.193 0 .432-.164.765-.49 1-.32.234-.801.35-1.442.35h-2.358v-4.902h2.274c.58 0 1.033.11 1.36.333.326.216.49.524.49.925 0 .259-.072.484-.213.675a1.275 1.275 0 0 1-.573.426zm-2.469-.25h1.332c.339 0 .594-.062.767-.185a.611.611 0 0 0 .268-.537c0-.468-.345-.703-1.035-.703h-1.332v1.425zm1.424 2.11c.37 0 .647-.06.832-.176.185-.118.277-.3.277-.546 0-.253-.086-.441-.259-.565-.166-.123-.43-.185-.795-.185h-1.479v1.471h1.424zM54.38 90.2c.475 0 .9.104 1.276.314.376.21.669.503.878.879.216.376.324.81.324 1.304s-.108.932-.324 1.314a2.23 2.23 0 0 1-.878.879 2.57 2.57 0 0 1-1.276.314 2.3 2.3 0 0 1-.97-.203 2.02 2.02 0 0 1-.74-.592v2.535h-.887v-6.698h.85v.777c.197-.272.447-.475.749-.61.302-.142.635-.213.998-.213zm-.074 4.227c.315 0 .595-.07.841-.212.253-.148.45-.352.592-.611a1.83 1.83 0 0 0 .222-.907c0-.339-.074-.638-.222-.897a1.487 1.487 0 0 0-.592-.61 1.656 1.656 0 0 0-.84-.213c-.309 0-.59.074-.842.222a1.585 1.585 0 0 0-.592.601 1.838 1.838 0 0 0-.212.897c0 .34.07.642.212.907.142.259.34.462.592.61.253.142.533.213.841.213zm5.94.777c-.487 0-.925-.108-1.313-.323a2.39 2.39 0 0 1-.915-.889 2.589 2.589 0 0 1-.324-1.295c0-.48.108-.91.324-1.285.221-.383.526-.679.915-.889a2.655 2.655 0 0 1 1.312-.323c.487 0 .922.108 1.304.323.388.21.69.506.906.888.222.377.333.805.333 1.286s-.111.913-.333 1.296a2.324 2.324 0 0 1-.906.888 2.604 2.604 0 0 1-1.304.323zm0-.777c.314 0 .594-.07.84-.212.253-.148.45-.352.592-.611.142-.265.213-.568.213-.907 0-.339-.07-.638-.213-.897a1.487 1.487 0 0 0-.591-.61 1.657 1.657 0 0 0-.842-.213c-.314 0-.597.07-.85.212a1.568 1.568 0 0 0-.592.611 1.837 1.837 0 0 0-.212.897c0 .34.07.642.212.907.148.259.346.462.592.61.253.142.536.213.85.213zm5.959.777c-.5 0-.947-.108-1.34-.323a2.39 2.39 0 0 1-.916-.889 2.534 2.534 0 0 1-.333-1.295c0-.48.111-.91.333-1.285.222-.383.527-.679.915-.889a2.745 2.745 0 0 1 1.34-.323c.444 0 .838.089 1.184.268.351.179.622.438.813.777l-.675.435a1.509 1.509 0 0 0-.573-.528 1.635 1.635 0 0 0-.758-.175c-.32 0-.61.07-.869.212a1.547 1.547 0 0 0-.6.611 1.838 1.838 0 0 0-.213.897c0 .346.07.651.212.916.148.26.349.46.601.602.26.141.549.212.87.212.277 0 .53-.058.757-.175.228-.118.42-.293.573-.528l.675.426c-.19.339-.462.601-.813.786-.346.179-.74.268-1.183.268zm6.733-4.181h-1.793v4.126h-.887v-4.126h-1.794v-.777h4.474v.777zm2.655-.823c.678 0 1.196.166 1.553.5.364.332.545.829.545 1.489v2.96h-.84v-.648a1.44 1.44 0 0 1-.639.528 2.437 2.437 0 0 1-.97.175c-.549 0-.99-.132-1.322-.397a1.281 1.281 0 0 1-.49-1.046c0-.431.157-.777.471-1.036.314-.265.814-.398 1.498-.398h1.405v-.175c0-.383-.111-.676-.333-.88-.222-.203-.548-.305-.98-.305-.29 0-.573.05-.85.148a2.128 2.128 0 0 0-.703.38l-.37-.666c.253-.204.555-.358.906-.463a3.692 3.692 0 0 1 1.119-.166zm-.203 4.32c.339 0 .631-.074.878-.222a1.32 1.32 0 0 0 .536-.648v-.684h-1.368c-.752 0-1.128.252-1.128.758 0 .247.096.441.287.583.19.142.456.213.794.213zm3.9-4.274h.887v2.081h2.791v-2.081h.888v4.903h-.888v-2.054h-2.791v2.054h-.888v-4.903zm11.274 4.126v1.915h-.832V95.15h-4.095v1.138h-.841v-1.915h.258c.315-.019.53-.24.648-.666.117-.426.197-1.027.24-1.804l.074-1.656h3.8v4.126h.748zm-3.809-2.406a10.278 10.278 0 0 1-.157 1.536c-.074.401-.212.69-.416.87h2.746v-3.35h-2.126l-.047.945zm6.712-1.766c.678 0 1.196.166 1.553.5.364.332.546.829.546 1.489v2.96h-.841v-.648c-.148.228-.36.404-.638.528a2.439 2.439 0 0 1-.97.175c-.55 0-.99-.132-1.323-.397a1.28 1.28 0 0 1-.49-1.046c0-.431.157-.777.472-1.036.314-.265.813-.398 1.497-.398h1.405v-.175c0-.383-.11-.676-.332-.88-.222-.203-.549-.305-.98-.305-.29 0-.574.05-.85.148a2.125 2.125 0 0 0-.703.38l-.37-.666c.253-.204.555-.358.906-.463a3.692 3.692 0 0 1 1.118-.166zm-.203 4.32c.339 0 .632-.074.878-.222.247-.154.425-.37.536-.648v-.684H93.31c-.752 0-1.128.252-1.128.758 0 .247.096.441.287.583.191.142.456.213.795.213zm6.497-4.32c.475 0 .9.104 1.276.314.376.21.669.503.878.879.216.376.324.81.324 1.304s-.108.932-.324 1.314c-.209.376-.502.67-.878.879a2.57 2.57 0 0 1-1.276.314 2.3 2.3 0 0 1-.97-.203 2.02 2.02 0 0 1-.74-.592v2.535h-.887v-6.698h.85v.777c.197-.272.447-.475.749-.61.302-.142.635-.213.998-.213zm-.074 4.227c.315 0 .595-.07.842-.212a1.57 1.57 0 0 0 .591-.611 1.83 1.83 0 0 0 .222-.907c0-.339-.074-.638-.222-.897a1.491 1.491 0 0 0-.591-.61 1.658 1.658 0 0 0-.842-.213c-.308 0-.588.074-.84.222a1.583 1.583 0 0 0-.592.601 1.838 1.838 0 0 0-.213.897c0 .34.07.642.213.907.141.259.338.462.591.61.253.142.533.213.841.213zM107 91.024h-1.793v4.126h-.888v-4.126h-1.793v-.777H107v.777z" fill="#3076D6"/><path d="M0 0h105.091v79.93H0z"/><path d="M46.525 62.09h4.723v5.194h-4.723z"/><path d="M46.525 64.453a2.362 2.362 0 1 1 4.723 0v.468a2.362 2.362 0 1 1-4.723 0v-.468z" fill="#F0DA97"/><path d="M54.08 62.09h4.724v5.194H54.08z"/><path d="M54.08 64.453a2.362 2.362 0 1 1 4.724 0v.468a2.363 2.363 0 1 1-4.723 0v-.468z" fill="#F0DA97"/><path d="M54.08 69.637h4.724v5.194H54.08z"/><path d="M54.08 72a2.362 2.362 0 1 1 4.724 0v.468a2.363 2.363 0 1 1-4.723 0V72z" fill="#F0DA97"/><path d="M46.525 69.637h4.723v5.194h-4.723z"/><path d="M46.525 72a2.362 2.362 0 1 1 4.723 0v.468a2.362 2.362 0 1 1-4.723 0V72z" fill="#F0DA97"/><path d="M52.521 20.07h36.891v52.401h-36.89z"/><path d="M71.793 21.003l.393-.755-.34-.178-.358.138.305.796zM88.56 29.74h.852v-.517l-.458-.239-.394.756zm-17.618-8.736v30.22h1.703v-30.22h-1.703zm.458.756l16.767 8.736.787-1.512-16.768-8.735-.786 1.511zm16.309 7.98v7.083h1.703V29.74h-1.703zm1.139 6.28l-9.21-3.305-.575 1.604 9.21 3.306.575-1.604zm-1.139.803v7.554h1.703v-7.554h-1.703zm0 7.554v28.095h1.703V44.376h-1.703zm1.139-.801l-9.21-3.306-.575 1.604 9.21 3.306.575-1.605zm.564.801V29.74h-1.703v14.637h1.703zM71.488 20.209l-16.86 6.483.61 1.59 16.86-6.482-.61-1.59zm-18.967 9.55v8.244h1.703V29.76h-1.703zm2.106-3.067a3.286 3.286 0 0 0-2.106 3.068h1.703c0-.655.403-1.242 1.014-1.477l-.61-1.591z" fill="#2F80ED"/><path d="M0 45.185h105.091V79.93H0z"/><path d="M68.763 58.515l.535-.663-.535.663zM53.988 46.578l.535-.663-.535.663zM36.762 58.516l-.548-.651.548.651zM0 79.93h33.464v-1.704H0v1.704zm36.748-3.287V60.38h-1.703v16.264h1.703zm.563-17.475l14.13-11.907-1.096-1.303-14.131 11.907 1.096 1.303zm16.142-11.927l14.775 11.937 1.07-1.326-14.775-11.937-1.07 1.326zm15.363 13.168v16.234h1.703V60.41h-1.703zM72.1 79.93h32.991v-1.703H72.1v1.704zm-3.284-3.286A3.285 3.285 0 0 0 72.1 79.93v-1.704a1.582 1.582 0 0 1-1.581-1.583h-1.703zm-.588-17.465c.372.3.588.753.588 1.231h1.703c0-.993-.45-1.933-1.221-2.557l-1.07 1.326zM51.442 47.261a1.58 1.58 0 0 1 2.011-.02l1.07-1.326a3.282 3.282 0 0 0-4.178.043l1.097 1.303zM36.748 60.38c0-.467.206-.91.563-1.21l-1.097-1.304a3.288 3.288 0 0 0-1.169 2.514h1.703zm-3.284 19.55a3.285 3.285 0 0 0 3.284-3.286h-1.703c0 .874-.708 1.583-1.581 1.583v1.704z" fill="#2F80ED"/><path d="M14.735 0h42.322v72.472H14.735z"/><path d="M33.298.936l.331-.785L33.271 0l-.35.172.377.764zm21.421 9.052l.331-.785-.33.785zm-37.4-.221L33.675 1.7 32.922.172 16.567 8.238l.753 1.529zM32.968 1.72l21.421 9.052.662-1.57L33.63.151l-.663 1.57zm22.387 10.51v11.134h1.703V12.231h-1.703zM32.447.936v50.76h1.703V.936h-1.703zm-16.01 16.999v-6.749h-1.702v6.749h1.703zm-.535.791l10.627-4.25-.632-1.582-10.627 4.25.632 1.582zm.536 6.292v-7.083h-1.703v7.083h1.703zm-.551.797L26.514 21.8l-.601-1.594-10.628 4.014.602 1.594zm.55 46.657V32.809h-1.702v39.663h1.703zm0-39.663v-7.791h-1.702v7.79h1.703zm-.55.797l10.627-4.014-.601-1.594-10.628 4.013.602 1.595zm38.501-22.833c.586.248.966.822.966 1.458h1.703c0-1.321-.79-2.514-2.007-3.028l-.662 1.57zM16.567 8.238a3.287 3.287 0 0 0-1.832 2.948h1.703c0-.603.341-1.153.882-1.42l-.753-1.528z" fill="#2F80ED"/></svg>