<svg viewBox="0 0 107 97" fill="none" xmlns="http://www.w3.org/2000/svg">
<rect width="107" height="97" fill="black" fill-opacity="0"/>
<rect width="107" height="97" fill="black" fill-opacity="0"/>
<rect width="107" height="97" fill="black" fill-opacity="0"/>
<rect width="106.852" height="9.03816" fill="black" fill-opacity="0" transform="translate(0.147949 87.9619)"/>
<path d="M6.30454 88.6742L3.42961 94.012C3.2016 94.4375 2.93352 94.7551 2.62537 94.9648C2.31724 95.1745 1.98137 95.2793 1.61777 95.2793C1.33428 95.2793 1.04463 95.2146 0.748817 95.0851L0.989165 94.345C1.21719 94.4252 1.42056 94.4653 1.59928 94.4653C2.00602 94.4653 2.34189 94.2494 2.60689 93.8177L2.75479 93.5864L0.147949 88.6742H1.13707L3.23549 92.7816L5.38937 88.6742H6.30454ZM8.83049 93.0776H7.81364V95.1498H6.9262V90.2468H7.81364V92.319H8.84898L10.439 90.2468H11.3911L9.53305 92.6058L11.5205 95.1498H10.4759L8.83049 93.0776ZM15.0486 90.2006C15.5231 90.2006 15.9484 90.3054 16.3243 90.5151C16.7002 90.7248 16.993 91.0178 17.2025 91.3939C17.4182 91.7701 17.526 92.2049 17.526 92.6983C17.526 93.1917 17.4182 93.6296 17.2025 94.012C16.993 94.3882 16.7002 94.6811 16.3243 94.8908C15.9484 95.1005 15.5231 95.2053 15.0486 95.2053C14.6973 95.2053 14.3738 95.1375 14.078 95.0018C13.7883 94.8661 13.5418 94.6688 13.3384 94.4098V96.9445H12.451V90.2468H13.3015V91.0239C13.4987 90.7525 13.7483 90.549 14.0502 90.4134C14.3522 90.2715 14.685 90.2006 15.0486 90.2006ZM14.9747 94.4283C15.289 94.4283 15.5694 94.3573 15.8159 94.2155C16.0685 94.0675 16.2658 93.8639 16.4075 93.6049C16.5554 93.3397 16.6293 93.0375 16.6293 92.6983C16.6293 92.3591 16.5554 92.06 16.4075 91.801C16.2658 91.5358 16.0685 91.3323 15.8159 91.1904C15.5694 91.0486 15.289 90.9777 14.9747 90.9777C14.6665 90.9777 14.3861 91.0517 14.1334 91.1997C13.8869 91.3415 13.6897 91.542 13.5418 91.801C13.4001 92.06 13.3292 92.3591 13.3292 92.6983C13.3292 93.0375 13.4001 93.3397 13.5418 93.6049C13.6836 93.8639 13.8808 94.0675 14.1334 94.2155C14.3861 94.3573 14.6665 94.4283 14.9747 94.4283ZM21.3113 90.4134C21.7673 90.4134 22.1741 90.5151 22.5315 90.7186C22.889 90.9222 23.1663 91.2058 23.3635 91.5697C23.5668 91.9274 23.6685 92.3375 23.6685 92.8001C23.6685 93.275 23.5607 93.6974 23.345 94.0675C23.1355 94.4313 22.8366 94.715 22.4483 94.9186C22.0662 95.1221 21.6287 95.2238 21.1356 95.2238C20.3037 95.2238 19.6597 94.9401 19.2036 94.3727C18.7537 93.7992 18.5288 92.9944 18.5288 91.9583C18.5288 90.953 18.7353 90.1667 19.1482 89.5993C19.5611 89.0257 20.1927 88.6464 21.0432 88.4614L23.2803 87.9619L23.4097 88.7759L21.3483 89.22C20.7073 89.3618 20.2297 89.6024 19.9154 89.9416C19.6011 90.2807 19.4224 90.768 19.3793 91.4032C19.5888 91.0887 19.86 90.8451 20.1927 90.6724C20.5255 90.4997 20.8984 90.4134 21.3113 90.4134ZM21.1541 94.4838C21.4684 94.4838 21.7458 94.4128 21.9861 94.271C22.2326 94.1291 22.4237 93.9349 22.5592 93.6882C22.6948 93.4353 22.7626 93.1485 22.7626 92.8278C22.7626 92.3406 22.6147 91.949 22.3189 91.653C22.0231 91.3569 21.6348 91.2089 21.1541 91.2089C20.6734 91.2089 20.2821 91.3569 19.9801 91.653C19.6843 91.949 19.5364 92.3406 19.5364 92.8278C19.5364 93.1485 19.6042 93.4353 19.7398 93.6882C19.8815 93.9349 20.0757 94.1291 20.3222 94.271C20.5687 94.4128 20.846 94.4838 21.1541 94.4838ZM29.173 90.2468L26.7973 95.6401C26.5879 96.1397 26.3412 96.4912 26.0578 96.6947C25.7804 96.8983 25.4445 97 25.0502 97C24.8098 97 24.5756 96.9599 24.3476 96.8798C24.1258 96.8057 23.9409 96.6947 23.793 96.5467L24.172 95.8807C24.4247 96.1212 24.7174 96.2414 25.0502 96.2414C25.2659 96.2414 25.4445 96.1828 25.5863 96.0657C25.7342 95.9547 25.8668 95.7604 25.9838 95.4829L26.141 95.1406L23.9779 90.2468H24.9023L26.6124 94.1692L28.3041 90.2468H29.173ZM34.8025 94.3727V96.2877H33.9705V95.1498H29.8754V96.2877H29.0341V94.3727H29.293C29.6073 94.3542 29.823 94.1322 29.9401 93.7067C30.0571 93.2811 30.1374 92.6798 30.1804 91.9028L30.2544 90.2468H34.0537V94.3727H34.8025ZM30.9939 91.9675C30.9693 92.5842 30.9168 93.0961 30.8367 93.5032C30.7628 93.904 30.6241 94.1939 30.4208 94.3727H33.1663V91.0239H31.0401L30.9939 91.9675ZM35.6257 92.2265H38.1124V92.9944H35.6257V92.2265ZM42.4447 95.2238C41.8285 95.2238 41.2738 95.082 40.7807 94.7983C40.2876 94.5084 39.8994 94.1137 39.616 93.6142C39.3326 93.1085 39.1908 92.5411 39.1908 91.912C39.1908 91.2829 39.3326 90.7186 39.616 90.2191C39.8994 89.7134 40.2876 89.3186 40.7807 89.035C41.2738 88.7451 41.8285 88.6002 42.4447 88.6002C42.9748 88.6002 43.4555 88.6865 43.8868 88.8592C44.3181 89.0319 44.6786 89.2847 44.9683 89.6178L44.386 90.2006C43.8992 89.6887 43.2674 89.4328 42.4909 89.4328C42.0781 89.4328 41.702 89.5253 41.3631 89.7103C41.0243 89.8891 40.7469 90.142 40.5312 90.4689C40.3154 90.7957 40.186 91.1688 40.1429 91.5882H43.2767V92.3468H40.1521C40.2137 92.7477 40.3524 93.1023 40.5681 93.4107C40.7839 93.719 41.0581 93.9595 41.3909 94.1322C41.7236 94.3049 42.0902 94.3913 42.4909 94.3913C43.2613 94.3913 43.8929 94.1353 44.386 93.6234L44.9683 94.2062C44.6786 94.5393 44.3152 94.7921 43.8775 94.9648C43.4462 95.1375 42.9684 95.2238 42.4447 95.2238ZM49.4425 92.6058C50.0774 92.7662 50.3946 93.164 50.3946 93.7992C50.3946 94.2309 50.2314 94.5639 49.9047 94.7983C49.5843 95.0327 49.1036 95.1498 48.4626 95.1498H46.1054V90.2468H48.3794C48.9589 90.2468 49.4118 90.3578 49.7383 90.5799C50.065 90.7957 50.2282 91.1041 50.2282 91.505C50.2282 91.764 50.1575 91.9891 50.0156 92.1803C49.8801 92.3653 49.6892 92.5072 49.4425 92.6058ZM46.9743 92.356H48.3055C48.6446 92.356 48.9002 92.2944 49.0727 92.171C49.2515 92.0477 49.3408 91.8688 49.3408 91.6345C49.3408 91.1658 48.9959 90.9314 48.3055 90.9314H46.9743V92.356ZM48.3979 94.4653C48.7677 94.4653 49.045 94.4067 49.2299 94.2895C49.4148 94.1723 49.5072 93.9904 49.5072 93.7437C49.5072 93.4908 49.4211 93.3027 49.2484 93.1794C49.082 93.056 48.8171 92.9944 48.4534 92.9944H46.9743V94.4653H48.3979ZM54.3813 90.2006C54.8559 90.2006 55.2811 90.3054 55.657 90.5151C56.0328 90.7248 56.3257 91.0178 56.5352 91.3939C56.7509 91.7701 56.8587 92.2049 56.8587 92.6983C56.8587 93.1917 56.7509 93.6296 56.5352 94.012C56.3257 94.3882 56.0328 94.6811 55.657 94.8908C55.2811 95.1005 54.8559 95.2053 54.3813 95.2053C54.03 95.2053 53.7065 95.1375 53.4107 95.0018C53.1209 94.8661 52.8745 94.6688 52.6711 94.4098V96.9445H51.7837V90.2468H52.6341V91.0239C52.8314 90.7525 53.081 90.549 53.3829 90.4134C53.6848 90.2715 54.0176 90.2006 54.3813 90.2006ZM54.3073 94.4283C54.6216 94.4283 54.9021 94.3573 55.1485 94.2155C55.4013 94.0675 55.5984 93.8639 55.7402 93.6049C55.8881 93.3397 55.962 93.0375 55.962 92.6983C55.962 92.3591 55.8881 92.06 55.7402 91.801C55.5984 91.5358 55.4013 91.3323 55.1485 91.1904C54.9021 91.0486 54.6216 90.9777 54.3073 90.9777C53.9991 90.9777 53.7189 91.0517 53.4661 91.1997C53.2197 91.3415 53.0224 91.542 52.8745 91.801C52.7327 92.06 52.6619 92.3591 52.6619 92.6983C52.6619 93.0375 52.7327 93.3397 52.8745 93.6049C53.0163 93.8639 53.2134 94.0675 53.4661 94.2155C53.7189 94.3573 53.9991 94.4283 54.3073 94.4283ZM60.2464 95.2053C59.7597 95.2053 59.322 95.0974 58.9338 94.8815C58.5455 94.6657 58.2405 94.3697 58.0186 93.9935C57.8028 93.6111 57.6951 93.1794 57.6951 92.6983C57.6951 92.2173 57.8028 91.7886 58.0186 91.4125C58.2405 91.0301 58.5455 90.734 58.9338 90.5244C59.322 90.3085 59.7597 90.2006 60.2464 90.2006C60.7332 90.2006 61.1677 90.3085 61.5499 90.5244C61.9381 90.734 62.24 91.0301 62.4558 91.4125C62.6776 91.7886 62.7886 92.2173 62.7886 92.6983C62.7886 93.1794 62.6776 93.6111 62.4558 93.9935C62.24 94.3697 61.9381 94.6657 61.5499 94.8815C61.1677 95.0974 60.7332 95.2053 60.2464 95.2053ZM60.2464 94.4283C60.5607 94.4283 60.8412 94.3573 61.0877 94.2155C61.3404 94.0675 61.5375 93.8639 61.6793 93.6049C61.8211 93.3397 61.8919 93.0375 61.8919 92.6983C61.8919 92.3591 61.8211 92.06 61.6793 91.801C61.5375 91.5358 61.3404 91.3323 61.0877 91.1904C60.8412 91.0486 60.5607 90.9777 60.2464 90.9777C59.9321 90.9777 59.6487 91.0486 59.396 91.1904C59.1496 91.3323 58.9523 91.5358 58.8044 91.801C58.6625 92.06 58.5917 92.3591 58.5917 92.6983C58.5917 93.0375 58.6625 93.3397 58.8044 93.6049C58.9523 93.8639 59.1496 94.0675 59.396 94.2155C59.6487 94.3573 59.9321 94.4283 60.2464 94.4283ZM66.2055 95.2053C65.7063 95.2053 65.2594 95.0974 64.8651 94.8815C64.4768 94.6657 64.1718 94.3697 63.9499 93.9935C63.7281 93.6111 63.6171 93.1794 63.6171 92.6983C63.6171 92.2173 63.7281 91.7886 63.9499 91.4125C64.1718 91.0301 64.4768 90.734 64.8651 90.5244C65.2594 90.3085 65.7063 90.2006 66.2055 90.2006C66.6492 90.2006 67.0435 90.29 67.3887 90.4689C67.74 90.6477 68.0113 90.9067 68.2022 91.2459L67.5274 91.6807C67.3734 91.4464 67.1822 91.2706 66.9543 91.1534C66.7263 91.0363 66.4736 90.9777 66.1963 90.9777C65.8759 90.9777 65.5861 91.0486 65.3273 91.1904C65.0745 91.3323 64.8743 91.5358 64.7264 91.801C64.5846 92.06 64.5138 92.3591 64.5138 92.6983C64.5138 93.0437 64.5846 93.349 64.7264 93.6142C64.8743 93.8732 65.0745 94.0736 65.3273 94.2155C65.5861 94.3573 65.8759 94.4283 66.1963 94.4283C66.4736 94.4283 66.7263 94.3697 66.9543 94.2525C67.1822 94.1353 67.3734 93.9595 67.5274 93.7252L68.2022 94.1507C68.0113 94.4899 67.74 94.752 67.3887 94.9371C67.0435 95.1159 66.6492 95.2053 66.2055 95.2053ZM72.9394 91.0239H71.146V95.1498H70.2586V91.0239H68.4652V90.2468H72.9394V91.0239ZM75.5939 90.2006C76.2719 90.2006 76.7895 90.3671 77.1469 90.7001C77.5106 91.0332 77.6923 91.5296 77.6923 92.1895V95.1498H76.8511V94.5023C76.7032 94.7304 76.4906 94.9062 76.2132 95.0296C75.9422 95.1467 75.6187 95.2053 75.2426 95.2053C74.6943 95.2053 74.2535 95.0727 73.9207 94.8075C73.5942 94.5424 73.4308 94.1939 73.4308 93.7622C73.4308 93.3305 73.5879 92.9851 73.9022 92.7261C74.2165 92.4609 74.7157 92.3283 75.3997 92.3283H76.8049V92.1525C76.8049 91.7701 76.6939 91.4772 76.4721 91.2737C76.2502 91.0702 75.9237 90.9684 75.4922 90.9684C75.2027 90.9684 74.9191 91.0178 74.6417 91.1164C74.3644 91.2089 74.1304 91.3354 73.9392 91.4957L73.5694 90.8296C73.8222 90.6261 74.1241 90.4719 74.4753 90.3671C74.8266 90.2561 75.1995 90.2006 75.5939 90.2006ZM75.3905 94.5208C75.7296 94.5208 76.0223 94.4468 76.2687 94.2987C76.5154 94.1446 76.6939 93.9287 76.8049 93.6512V92.9666H75.4367C74.685 92.9666 74.3089 93.2195 74.3089 93.7252C74.3089 93.9719 74.4045 94.1661 74.5955 94.308C74.7867 94.4498 75.0516 94.5208 75.3905 94.5208ZM79.2903 90.2468H80.1777V92.3283H82.9695V90.2468H83.8569V95.1498H82.9695V93.0961H80.1777V95.1498H79.2903V90.2468ZM90.565 94.3727V96.2877H89.733V95.1498H85.6379V96.2877H84.7967V94.3727H85.0555C85.3698 94.3542 85.5856 94.1322 85.7026 93.7067C85.8198 93.2811 85.8999 92.6798 85.9429 91.9028L86.0169 90.2468H89.8162V94.3727H90.565ZM86.7564 91.9675C86.7318 92.5842 86.6795 93.0961 86.5993 93.5032C86.5253 93.904 86.3866 94.1939 86.1833 94.3727H88.9288V91.0239H86.8026L86.7564 91.9675ZM93.4684 90.2006C94.1463 90.2006 94.664 90.3671 95.0214 90.7001C95.3851 91.0332 95.5668 91.5296 95.5668 92.1895V95.1498H94.7256V94.5023C94.5777 94.7304 94.3651 94.9062 94.0877 95.0296C93.8165 95.1467 93.4929 95.2053 93.1171 95.2053C92.5685 95.2053 92.128 95.0727 91.7952 94.8075C91.4685 94.5424 91.3052 94.1939 91.3052 93.7622C91.3052 93.3305 91.4624 92.9851 91.7767 92.7261C92.091 92.4609 92.5902 92.3283 93.2742 92.3283H94.6794V92.1525C94.6794 91.7701 94.5684 91.4772 94.3466 91.2737C94.1247 91.0702 93.798 90.9684 93.3667 90.9684C93.077 90.9684 92.7935 91.0178 92.5162 91.1164C92.2389 91.2089 92.0046 91.3354 91.8137 91.4957L91.4439 90.8296C91.6967 90.6261 91.9986 90.4719 92.3498 90.3671C92.7011 90.2561 93.074 90.2006 93.4684 90.2006ZM93.265 94.5208C93.6039 94.5208 93.8968 94.4468 94.1432 94.2987C94.3896 94.1446 94.5684 93.9287 94.6794 93.6512V92.9666H93.3112C92.5593 92.9666 92.1834 93.2195 92.1834 93.7252C92.1834 93.9719 92.279 94.1661 92.47 94.308C92.661 94.4498 92.9261 94.5208 93.265 94.5208ZM99.7624 90.2006C100.237 90.2006 100.662 90.3054 101.038 90.5151C101.414 90.7248 101.707 91.0178 101.916 91.3939C102.132 91.7701 102.24 92.2049 102.24 92.6983C102.24 93.1917 102.132 93.6296 101.916 94.012C101.707 94.3882 101.414 94.6811 101.038 94.8908C100.662 95.1005 100.237 95.2053 99.7624 95.2053C99.4111 95.2053 99.0876 95.1375 98.7918 95.0018C98.502 94.8661 98.2556 94.6688 98.0522 94.4098V96.9445H97.1648V90.2468H98.0153V91.0239C98.2123 90.7525 98.4619 90.549 98.764 90.4134C99.0659 90.2715 99.3987 90.2006 99.7624 90.2006ZM99.6884 94.4283C100.003 94.4283 100.283 94.3573 100.53 94.2155C100.782 94.0675 100.979 93.8639 101.121 93.6049C101.269 93.3397 101.343 93.0375 101.343 92.6983C101.343 92.3591 101.269 92.06 101.121 91.801C100.979 91.5358 100.782 91.3323 100.53 91.1904C100.283 91.0486 100.003 90.9777 99.6884 90.9777C99.3802 90.9777 99.0997 91.0517 98.8472 91.1997C98.6006 91.3415 98.4035 91.542 98.2556 91.801C98.1138 92.06 98.043 92.3591 98.043 92.6983C98.043 93.0375 98.1138 93.3397 98.2556 93.6049C98.3972 93.8639 98.5945 94.0675 98.8472 94.2155C99.0997 94.3573 99.3802 94.4283 99.6884 94.4283ZM107 91.0239H105.207V95.1498H104.319V91.0239H102.526V90.2468H107V91.0239Z" fill="#3076D6"/>
<rect width="105.091" height="79.9298" fill="black" fill-opacity="0"/>
<rect width="4.72319" height="5.19401" fill="black" fill-opacity="0" transform="translate(46.5247 62.0901)"/>
<path d="M46.5247 64.4534C46.5247 63.1482 47.582 62.0901 48.8863 62.0901C50.1905 62.0901 51.2478 63.1482 51.2478 64.4534V64.9208C51.2478 66.226 50.1905 67.2841 48.8863 67.2841C47.582 67.2841 46.5247 66.226 46.5247 64.9208V64.4534Z" fill="#F0DA97"/>
<rect width="4.72319" height="5.19401" fill="black" fill-opacity="0" transform="translate(54.0806 62.0901)"/>
<path d="M54.0806 64.4534C54.0806 63.1482 55.1379 62.0901 56.4422 62.0901C57.7464 62.0901 58.8038 63.1482 58.8038 64.4534V64.9208C58.8038 66.226 57.7464 67.2841 56.4422 67.2841C55.1379 67.2841 54.0806 66.226 54.0806 64.9208V64.4534Z" fill="#F0DA97"/>
<rect width="4.72319" height="5.19401" fill="black" fill-opacity="0" transform="translate(54.0806 69.6368)"/>
<path d="M54.0806 72.0002C54.0806 70.6949 55.1379 69.6368 56.4422 69.6368C57.7464 69.6368 58.8038 70.6949 58.8038 72.0002V72.4675C58.8038 73.7727 57.7464 74.8308 56.4422 74.8308C55.1379 74.8308 54.0806 73.7727 54.0806 72.4675V72.0002Z" fill="#F0DA97"/>
<rect width="4.72319" height="5.19401" fill="black" fill-opacity="0" transform="translate(46.5247 69.6368)"/>
<path d="M46.5247 72.0002C46.5247 70.6949 47.582 69.6368 48.8863 69.6368C50.1905 69.6368 51.2478 70.6949 51.2478 72.0002V72.4675C51.2478 73.7727 50.1905 74.8308 48.8863 74.8308C47.582 74.8308 46.5247 73.7727 46.5247 72.4675V72.0002Z" fill="#F0DA97"/>
<rect width="36.8906" height="52.4009" fill="black" fill-opacity="0" transform="translate(52.5212 20.0704)"/>
<path d="M71.7931 21.0035L72.1863 20.2477L71.8459 20.0704L71.4878 20.2082L71.7931 21.0035ZM88.5604 29.7389H89.4119V29.2219L88.9536 28.9831L88.5604 29.7389ZM70.9417 21.0035V51.2232H72.6446V21.0035H70.9417ZM71.4 21.7593L88.1673 30.4947L88.9536 28.9831L72.1863 20.2477L71.4 21.7593ZM87.709 29.7389V36.8216H89.4119V29.7389H87.709ZM88.848 36.0196L79.6377 32.7143L79.0628 34.3184L88.2731 37.6237L88.848 36.0196ZM87.709 36.8216V44.3765H89.4119V36.8216H87.709ZM87.709 44.3765V72.4713H89.4119V44.3765H87.709ZM88.848 43.5745L79.6377 40.2692L79.0628 41.8733L88.2731 45.1786L88.848 43.5745ZM89.4119 44.3765V29.7389H87.709V44.3765H89.4119ZM71.4878 20.2082L54.6275 26.691L55.2382 28.2817L72.0985 21.7989L71.4878 20.2082ZM52.5212 29.7589V38.0021H54.2241V29.7589H52.5212ZM54.6275 26.691C53.3586 27.1789 52.5212 28.3986 52.5212 29.7589H54.2241C54.2241 29.1039 54.6273 28.5166 55.2382 28.2817L54.6275 26.691Z" fill="#2F80ED"/>
<rect width="105.091" height="34.7445" fill="black" fill-opacity="0" transform="translate(0 45.1853)"/>
<path d="M68.7627 58.5153L69.2976 57.8523L68.7627 58.5153ZM53.9881 46.5777L54.5231 45.9147L53.9881 46.5777ZM36.7622 58.5165L36.2136 57.8647L36.7622 58.5165ZM0 79.9298H33.4637V78.2257H0V79.9298ZM36.7478 76.6433V60.3788H35.045V76.6433H36.7478ZM37.3105 59.1683L51.4416 47.2614L50.3447 45.9578L36.2136 57.8647L37.3105 59.1683ZM53.4532 47.2406L68.2277 59.1782L69.2976 57.8523L54.5231 45.9147L53.4532 47.2406ZM68.8157 60.4094V76.6433H70.5186V60.4094H68.8157ZM72.0998 79.9298H105.091V78.2257H72.0998V79.9298ZM68.8157 76.6433C68.8157 78.4584 70.286 79.9298 72.0998 79.9298V78.2257C71.2265 78.2257 70.5186 77.5172 70.5186 76.6433H68.8157ZM68.2277 59.1782C68.5997 59.4786 68.8157 59.9312 68.8157 60.4094H70.5186C70.5186 59.4162 70.0697 58.4762 69.2976 57.8523L68.2277 59.1782ZM51.4416 47.2614C52.0206 46.7734 52.8642 46.7647 53.4532 47.2406L54.5231 45.9147C53.2994 44.9262 51.5477 44.9442 50.3447 45.9578L51.4416 47.2614ZM36.7478 60.3788C36.7478 59.912 36.9536 59.469 37.3105 59.1683L36.2136 57.8647C35.4726 58.4892 35.045 59.4092 35.045 60.3788H36.7478ZM33.4637 79.9298C35.2773 79.9298 36.7478 78.4584 36.7478 76.6433H35.045C35.045 77.5172 34.3368 78.2257 33.4637 78.2257V79.9298Z" fill="#2F80ED"/>
<rect width="42.3223" height="72.472" fill="black" fill-opacity="0" transform="translate(14.7346)"/>
<path d="M33.298 0.936445L33.6292 0.151491L33.2707 -2.34768e-08L32.9217 0.17216L33.298 0.936445ZM54.7191 9.98809L55.0504 9.20315L54.7191 9.98809ZM17.3197 9.7667L33.6744 1.70073L32.9217 0.17216L16.567 8.23813L17.3197 9.7667ZM32.9668 1.7214L54.388 10.7731L55.0504 9.20315L33.6292 0.151491L32.9668 1.7214ZM55.354 12.2308V23.3651H57.0569V12.2308H55.354ZM32.4466 0.936445V51.6961H34.1495V0.936445H32.4466ZM16.4375 17.935V11.1861H14.7346V17.935H16.4375ZM15.902 18.7262L26.5292 14.4766L25.8973 12.8941L15.2701 17.1438L15.902 18.7262ZM16.4375 25.0177V17.935H14.7346V25.0177H16.4375ZM15.8867 25.8149L26.5139 21.8014L25.9126 20.207L15.2854 24.2206L15.8867 25.8149ZM16.4375 72.472V32.8088H14.7346V72.472H16.4375ZM16.4375 32.8088V25.0177H14.7346V32.8088H16.4375ZM15.8867 33.6059L26.5139 29.5924L25.9126 27.9981L15.2854 32.0115L15.8867 33.6059ZM54.388 10.7731C54.9736 11.0205 55.354 11.5947 55.354 12.2308H57.0569C57.0569 10.9097 56.2665 9.71704 55.0504 9.20315L54.388 10.7731ZM16.567 8.23813C15.4451 8.79144 14.7346 9.93444 14.7346 11.1861H16.4375C16.4375 10.5834 16.7795 10.0331 17.3197 9.7667L16.567 8.23813Z" fill="#2F80ED"/>
</svg>
